HIERARCHY
ROOT Hips
{
	OFFSET	0.00	0.00	0.00
	CHANNELS 6 Xposition Yposition Zposition Zrotation Xrotation Yrotation
	JOINT LeftUpLeg
	{
		OFFSET	 0.126116	-0.065224	 0.014019
		CHANNELS 3 Zrotation Xrotation Yrotation
		JOINT LeftLeg
		{
			OFFSET	 0.000000	 0.569914	 0.000000
			CHANNELS 3 Zrotation Xrotation Yrotation
			JOINT LeftFoot
			{
				OFFSET	 0.000000	 0.544423	 0.000000
				CHANNELS 3 Zrotation Xrotation Yrotation
				JOINT LeftToeBase
				{
					OFFSET	 0.000000	 0.207117	 0.000000
					CHANNELS 3 Zrotation Xrotation Yrotation
					End Site
					{
						OFFSET	 0.000000	 0.207117	 0.000000
					}
				}
			}
		}
	}
	JOINT RightUpLeg
	{
		OFFSET	-0.124023	-0.065224	 0.008373
		CHANNELS 3 Zrotation Xrotation Yrotation
		JOINT RightLeg
		{
			OFFSET	 0.000000	 0.570047	 0.000000
			CHANNELS 3 Zrotation Xrotation Yrotation
			JOINT RightFoot
			{
				OFFSET	 0.000000	 0.544354	 0.000000
				CHANNELS 3 Zrotation Xrotation Yrotation
				JOINT RightToeBase
				{
					OFFSET	 0.000000	 0.207540	 0.000000
					CHANNELS 3 Zrotation Xrotation Yrotation
					End Site
					{
						OFFSET	 0.000000	 0.207540	 0.000000
					}
				}
			}
		}
	}
	JOINT Spine
	{
		OFFSET	 0.000184	 0.117403	 0.007763
		CHANNELS 3 Zrotation Xrotation Yrotation
		JOINT Spine1
		{
			OFFSET	 0.000000	 0.137269	 0.000000
			CHANNELS 3 Zrotation Xrotation Yrotation
			JOINT Spine2
			{
				OFFSET	 0.000000	 0.156879	 0.000000
				CHANNELS 3 Zrotation Xrotation Yrotation
				JOINT LeftShoulder
				{
					OFFSET	 0.080501	 0.160143	 0.002496
					CHANNELS 3 Zrotation Xrotation Yrotation
					JOINT LeftArm
					{
						OFFSET	 0.000000	 0.164363	 0.000000
						CHANNELS 3 Zrotation Xrotation Yrotation
						JOINT LeftForeArm
						{
							OFFSET	 0.000000	 0.364576	 0.000000
							CHANNELS 3 Zrotation Xrotation Yrotation
							JOINT LeftHand
							{
								OFFSET	 0.000000	 0.360812	 0.000000
								CHANNELS 3 Zrotation Xrotation Yrotation
								JOINT LeftHandIndex1
								{
									OFFSET	 0.000000	 0.086006	 0.000000
									CHANNELS 3 Zrotation Xrotation Yrotation
									JOINT LeftHandIndex2
									{
										OFFSET	 0.000000	 0.047237	 0.000000
										CHANNELS 3 Zrotation Xrotation Yrotation
										JOINT LeftHandIndex3
										{
											OFFSET	-0.004284	 0.038165	 0.000551
											CHANNELS 3 Zrotation Xrotation Yrotation
											End Site
											{
												OFFSET	-0.004284	 0.038165	 0.000551
											}
										}
									}
								}
							}
						}
					}
				}
				JOINT Neck
				{
					OFFSET	 0.000000	 0.176489	 0.000000
					CHANNELS 3 Zrotation Xrotation Yrotation
					JOINT Head
					{
						OFFSET	 0.000000	 0.077941	 0.001747
						CHANNELS 3 Zrotation Xrotation Yrotation
						End Site
						{
							OFFSET	 0.000000	 0.077941	 0.001747
						}
					}
				}
				JOINT RightShoulder
				{
					OFFSET	-0.080363	 0.159706	-0.000306
					CHANNELS 3 Zrotation Xrotation Yrotation
					JOINT RightArm
					{
						OFFSET	 0.000000	 0.164196	 0.000000
						CHANNELS 3 Zrotation Xrotation Yrotation
						JOINT RightForeArm
						{
							OFFSET	 0.000000	 0.365611	 0.000000
							CHANNELS 3 Zrotation Xrotation Yrotation
							JOINT RightHand
							{
								OFFSET	 0.000000	 0.360648	 0.000000
								CHANNELS 3 Zrotation Xrotation Yrotation
								JOINT RightHandIndex1
								{
									OFFSET	 0.000000	 0.069977	 0.000000
									CHANNELS 3 Zrotation Xrotation Yrotation
									JOINT RightHandIndex2
									{
										OFFSET	 0.000000	 0.052305	 0.000000
										CHANNELS 3 Zrotation Xrotation Yrotation
										JOINT RightHandIndex3
										{
											OFFSET	 0.009002	 0.042196	 0.000782
											CHANNELS 3 Zrotation Xrotation Yrotation
											End Site
											{
												OFFSET	 0.009002	 0.042196	 0.000782
											}
										}
									}
								}
							}
						}
					}
				}
			}
		}
	}
}
MOTION
Frames:    5
Frame Time: 0.03333334
-0.005804	 1.233167	 0.011266	 1.697407	 0.348102	 172.286800	-160.683200	 13.036000	-26.816500	 5.585452	-20.090900	 3.106587	-12.185800	 63.152380	 4.268976	 1.162005	 26.688970	-2.659650	 173.665800	 10.800310	 18.333300	-2.564741	-30.569610	 7.783759	 13.607630	 77.750220	-9.821856	-1.288973	 28.372220	 2.710510	 2.268395	 6.368842	 3.856579	-1.254009	 3.441792	 2.123797	 3.337464	-2.794229	-3.106162	-113.188500	 6.484876	 92.935750	 20.628620	 47.116880	 4.166139	 4.969248	-0.256846	-0.072660	 20.768380	 12.304590	 17.945500	 0.566575	 8.635524	-0.355701	-5.949556	 13.581600	 1.518383	 4.986243	-3.507348	-0.334578	 3.185633	-6.825814	 0.872147	-1.242382	-5.459023	 2.550153	 123.454500	 10.374320	-96.382960	-7.164071	 40.309510	-2.089752	-5.084485	-0.199882	 0.049600	 1.146991	 4.311795	-13.779400	-2.309699	 4.851336	 0.896188	 12.531590	 22.808640	-5.137761	-8.500007	 13.028140	-0.520824
-0.005806	 1.233090	 0.011333	 1.680613	 0.304746	 172.240400	-160.675100	 13.085340	-26.854000	 5.589720	-20.130490	 3.068882	-12.229220	 63.168450	 4.310967	 1.161960	 26.688370	-2.659632	 173.651400	 10.877160	 18.307670	-2.568365	-30.611430	 7.760987	 13.498320	 77.763040	-9.703998	-1.288931	 28.371660	 2.710492	 2.271380	 6.355893	 3.882367	-1.323851	 3.339925	 2.150847	 3.364811	-2.684513	-3.079614	-113.168900	 6.487622	 92.937800	 20.669740	 47.132770	 4.154694	 4.962837	-0.256466	-0.072674	 20.692740	 12.345360	 18.014270	 0.581783	 8.588360	-0.355637	-5.949362	 13.592200	 1.519520	 4.987010	-3.490505	-0.334171	 3.185077	-6.826227	 0.875347	-1.243657	-5.454782	 2.577219	 123.441400	 10.376450	-96.381580	-7.196255	 40.355920	-2.052591	-5.076206	-0.199495	 0.049694	 1.198116	 4.306806	-13.715620	-2.315196	 4.868554	 0.895965	 12.534860	 22.854060	-5.148715	-8.500336	 13.065320	-0.523170
-0.005857	 1.233026	 0.011455	 1.660945	 0.231674	 172.127900	-160.649300	 13.145390	-26.936080	 5.587822	-20.181170	 2.981128	-12.313390	 63.189970	 4.396034	 1.161861	 26.687020	-2.659593	 173.637800	 10.999890	 18.248660	-2.571687	-30.658070	 7.712801	 13.274790	 77.767240	-9.468762	-1.288835	 28.370400	 2.710451	 2.293753	 6.329499	 3.939251	-1.475052	 3.209353	 2.227859	 3.425967	-2.554692	-3.024226	-113.125400	 6.493742	 92.942390	 20.730740	 47.169480	 4.155243	 4.953226	-0.255996	-0.072789	 20.609780	 12.397160	 18.157000	 0.615588	 8.483495	-0.355449	-5.948931	 13.615760	 1.522046	 4.988716	-3.453057	-0.333267	 3.183842	-6.827147	 0.882461	-1.245842	-5.458046	 2.637877	 123.412200	 10.381200	-96.378540	-7.222185	 40.439220	-2.000269	-5.066631	-0.199157	 0.049736	 1.219286	 4.277442	-13.554690	-2.327417	 4.906834	 0.895474	 12.542150	 22.955030	-5.173094	-8.501066	 13.147970	-0.528388
-0.005925	 1.232965	 0.011597	 1.639705	 0.155268	 171.981200	-160.615600	 13.197690	-27.167480	 5.628607	-20.224000	 3.001216	-12.426820	 63.213900	 4.512574	 1.161732	 26.685270	-2.659542	 173.624100	 11.132160	 18.171200	-2.574664	-30.705260	 7.651411	 12.992460	 77.767270	-9.173012	-1.288712	 28.368780	 2.710399	 2.325625	 6.300376	 4.012268	-1.676341	 3.095528	 2.335950	 3.509071	-2.451274	-2.954928	-113.069300	 6.501607	 92.948270	 20.790650	 47.211130	 4.170249	 4.944722	-0.255582	-0.072772	 20.548580	 12.446680	 18.338880	 0.659104	 8.348466	-0.355114	-5.948378	 13.646100	 1.525299	 4.990911	-3.404845	-0.332104	 3.182251	-6.828331	 0.891621	-1.248308	-5.469255	 2.716257	 123.374700	 10.387320	-96.374610	-7.234749	 40.462200	-3.701973	-5.057425	-0.198839	 0.049838	 1.069182	 4.186290	-11.572370	-2.343152	 4.956118	 0.894855	 12.551620	 23.085040	-5.204532	-8.501994	 13.254390	-0.535107
-0.006013	 1.232879	 0.011792	 1.610252	 0.062331	 171.773300	-160.568900	 13.253950	-27.396460	 5.649003	-20.291150	 2.923298	-12.599640	 63.246160	 4.691644	 1.161549	 26.682800	-2.659469	 173.604600	 11.302070	 18.059600	-2.578668	-30.769950	 7.564060	 12.588490	 77.767210	-8.749584	-1.288537	 28.366480	 2.710325	 2.371093	 6.264928	 4.117104	-1.974474	 2.976313	 2.497753	 3.633809	-2.353269	-2.857892	-112.989500	 6.512858	 92.956670	 20.863060	 47.261840	 4.204027	 4.935226	-0.255093	-0.072849	 20.496510	 12.506140	 18.598590	 0.721099	 8.156024	-0.354458	-5.947592	 13.689320	 1.529934	 4.994037	-3.336143	-0.330451	 3.179986	-6.830017	 0.904672	-1.251558	-5.490418	 2.828113	 123.321100	 10.396050	-96.369000	-7.234501	 40.681930	-1.886824	-5.048317	-0.198430	 0.049815	 1.123314	 4.150008	-12.998430	-2.365575	 5.026348	 0.893996	 12.565280	 23.270330	-5.249431	-8.503296	 13.406050	-0.544684
